# xmcd
#
# Track frame offsets:
#	150
#	43260
#	129865
#	190227
#	262295
#	284407
#	296187
#
# Disc length: 4089 seconds
#
# Revision: 0
# Processed by: cddbd v1.4PL0 Copyright (c) Steve Scherf et al.
# Submitted via: dBpowerAMP V4.0
#
DISCID=750ff707
DTITLE=The Beatles - The long and winding Road CD 8/12
DYEAR=1900
DGENRE=Blues
TTITLE0=Spur 1
TTITLE1=Spur 2
TTITLE2=Spur 3
TTITLE3=Spur 4
TTITLE4=Spur 5
TTITLE5=Spur 6
TTITLE6=Spur 7
EXTD=Special Edition
EXTT0=
EXTT1=
EXTT2=
EXTT3=
EXTT4=
EXTT5=
EXTT6=
PLAYORDER=
